<svg xmlns="http://www.w3.org/2000/svg" xmlns:xlink="http://www.w3.org/1999/xlink" width="180" height="42"><defs><path id="a" d="M20.5.2H.43v27.05H20.5V.2z"/></defs><g fill="none" fill-rule="evenodd"><path fill="#FFF" d="M0 7.64h5.42v2.78c1.25-1.64 2.89-3.14 5.63-3.14 2.5 0 4.38 1.13 5.38 3.1 1.68-2 3.68-3.1 6.28-3.1 4.03 0 6.45 2.48 6.45 7.2v12.76h-5.42V16.3c0-2.63-1.14-3.99-3.17-3.99-2.03 0-3.28 1.36-3.28 3.99v10.93h-5.42V16.3c0-2.63-1.14-3.99-3.17-3.99-2.03 0-3.28 1.36-3.28 3.99v10.93H0V7.64ZM46.45 17.55v-.07c0-2.89-2.03-5.41-5.03-5.41-3.1 0-4.95 2.45-4.95 5.33v.08c0 2.88 2.03 5.4 5.02 5.4 3.1 0 4.96-2.44 4.96-5.33m-15.33 0v-.07c0-5.63 4.42-10.2 10.37-10.2 5.92 0 10.3 4.5 10.3 10.12v.08c0 5.63-4.41 10.2-10.37 10.2-5.91 0-10.3-4.5-10.3-10.13"/><g transform="translate(53.35 .35)"><mask id="b" fill="#fff"><use xlink:href="#a"/></mask><path fill="#FFF" d="M15.16 17.12v-.07c0-3.25-2.1-5.4-4.64-5.4-2.53 0-4.67 2.11-4.67 5.4v.07c0 3.26 2.14 5.41 4.67 5.41s4.64-2.15 4.64-5.4m-14.73 0v-.08c0-6.54 4.18-10.12 8.7-10.12a7.28 7.28 0 0 1 5.96 2.92V.2h5.41v26.68H15.1v-2.81c-1.32 1.83-3.14 3.18-5.96 3.18-4.45 0-8.7-3.58-8.7-10.13" mask="url(#b)"/></g><path fill="#FFF" d="M96.82 7.64h5.42v3.95c1.1-2.7 2.89-4.46 6.1-4.31v5.81h-.29c-3.6 0-5.81 2.23-5.81 6.9v7.25h-5.42V7.64ZM110.56 7.64h5.42v2.78c1.25-1.64 2.85-3.14 5.6-3.14 4.1 0 6.49 2.78 6.49 7.27v12.69h-5.42V16.3c0-2.63-1.21-3.99-3.28-3.99s-3.39 1.36-3.39 3.99v10.93h-5.42V7.64ZM130.54 5.49h5.71V.55h-5.71zM130.68 27.24h5.42V7.64h-5.42zM85.36 11.74c2.14 0 3.53 1.48 3.96 3.73H81.3c.52-2.28 1.93-3.73 4.05-3.73m9.3 6.17c0-5.55-2.92-10.63-9.3-10.63-5.56 0-9.45 4.6-9.45 10.2v.07c0 6 4.24 10.12 9.98 10.12a9.46 9.46 0 0 0 7.8-3.65l-3.1-2.81c-1.49 1.42-2.8 2-4.63 2-2.42 0-4.13-1.31-4.67-3.83h13.3c.04-.51.07-1.03.07-1.47M155.03 11.56V7.64h-16.29v4.5h9.55l-9.87 11.19v3.91h2.7zM165.59 23.22l-.2-.01 3.52 3.95a9.23 9.23 0 0 0 4.41-3.14l-3.1-2.81c-1.5 1.42-2.81 2-4.63 2M160.94 15.47c.51-2.28 1.93-3.73 4.04-3.73 2.15 0 3.53 1.48 3.96 3.73h-8Zm4.04-8.2c-4 0-7.13 2.4-8.57 5.83l5.58 6.28h12.23c.03-.51.07-1.03.07-1.46 0-5.56-2.93-10.64-9.3-10.64Z"/><path fill="#FEC14B" d="M149.83 27.24h5.2v-4.5h-5.2z"/><path fill="#FFF" d="M0 41.71v-6.19h1.38v2.51h2.4v-2.51h1.38v6.19H3.78v-2.57h-2.4v2.57zM10.28 40.71c1.08 0 1.58-.94 1.58-2.1 0-1.15-.52-2.1-1.59-2.1s-1.58.95-1.58 2.1c0 1.16.52 2.1 1.6 2.1m0-5.28c1.93 0 2.97 1.37 2.97 3.18 0 1.8-1.03 3.19-2.99 3.19-1.94 0-2.98-1.37-2.98-3.19 0-1.8 1.03-3.18 3-3.18M21.89 35.52v6.19h-1.37v-4.09h-.01l-1.3 4.09h-1.16l-1.3-4.07h-.02v4.07H15.4v-6.19h1.86l1.39 4.46h.02l1.38-4.46zM24.26 41.71v-6.19h4.23v1.09h-2.85v1.43h2.47v1.09h-2.47v1.48h2.9v1.1zM34.28 41.71v-6.19h3.73v.44h-3.25v2.4h2.87v.45h-2.87v2.46h3.31v.44zM46.3 35.52v6.19h-.48v-5.5h-.02l-2.21 5.5h-.46l-2.21-5.48h-.01v5.48h-.48v-6.19h.71l2.22 5.51h.02l2.21-5.51zM51.46 38.56c.52 0 .95-.3.95-.97 0-.67-.43-.98-.95-.98h-1.23v1.95h1.23Zm.13-3.04c1.22 0 2.22.73 2.22 2.05 0 1.32-.98 2.08-2.24 2.08h-1.34v2.06h-1.38v-6.2h2.74ZM58.58 40.71c1.07 0 1.58-.94 1.58-2.1 0-1.15-.52-2.1-1.6-2.1-1.07 0-1.57.95-1.57 2.1 0 1.16.52 2.1 1.59 2.1m0-5.28c1.94 0 2.98 1.37 2.98 3.18 0 1.8-1.03 3.19-3 3.19-1.93 0-2.97-1.37-2.97-3.19 0-1.8 1.03-3.18 2.99-3.18M71.59 35.52l-1.7 6.19H68.4l-1.04-4.22h-.02l-1.05 4.22h-1.52l-1.7-6.19h1.45l1.08 4.44h.02l1-4.44h1.49l1.01 4.39h.01l1.06-4.39zM73.48 41.71v-6.19h4.22v1.09h-2.85v1.43h2.47v1.09h-2.47v1.48h2.91v1.1zM81.23 38.23h1.28c.44 0 .8-.26.8-.8 0-.57-.36-.82-.8-.82h-1.28v1.62Zm1.07 1.08h-1.07v2.4h-1.39v-6.2h2.83c1.18 0 2.03.66 2.03 1.81 0 .82-.44 1.4-1.1 1.67l1.27 2.72h-1.51l-1.06-2.4ZM92.87 35.52v6.19h-.49v-5.5h-.02l-2.21 5.5h-.45l-2.21-5.48h-.02v5.48h-.48v-6.19h.72l2.22 5.51h.01l2.21-5.51zM95.58 41.71v-6.19h3.74v.44h-3.25v2.4h2.86v.45h-2.86v2.46h3.3v.44zM106.45 35.52v6.19h-.44l-3.78-5.38h-.02v5.38h-.48v-6.19h.51l3.71 5.29h.02v-5.29zM110.77 41.71v-5.75h-2.21v-.44h4.92v.44h-2.22v5.75zM114.76 36.46c.02.07.04.1.08.13a.4.4 0 0 0 .26.08c.16 0 .27-.08.27-.2 0-.08-.06-.14-.17-.17l-.27-.07c-.13-.04-.2-.07-.25-.14a.38.38 0 0 1-.08-.24c0-.25.19-.42.48-.42a.6.6 0 0 1 .38.12c.06.05.09.1.11.18l-.23.06c-.04-.1-.12-.16-.26-.16s-.23.07-.23.17c0 .09.06.14.19.17l.23.06c.15.04.24.1.29.18a.4.4 0 0 1 .07.22c0 .27-.22.44-.55.44a.65.65 0 0 1-.42-.13.41.41 0 0 1-.13-.23l.23-.05ZM116.93 36.85v-1.23l-.38 1.23h-.13l-.38-1.23v1.23h-.2v-1.4h.38l.29.9.28-.9h.39v1.4zM175.83 8.45c-.1-.24-.21-.32-.46-.32-.22 0-.35.09-.35.24s.1.22.37.28c.4.08.55.13.69.22.21.16.33.38.33.64 0 .28-.15.55-.38.7-.17.12-.41.18-.69.18-.3 0-.55-.08-.74-.23-.17-.13-.24-.25-.31-.51l.56-.13c.07.25.24.37.52.37.26 0 .42-.1.42-.28 0-.16-.1-.23-.45-.3a1.72 1.72 0 0 1-.6-.21.68.68 0 0 1-.32-.6.8.8 0 0 1 .27-.62.95.95 0 0 1 .68-.24c.28 0 .5.07.68.2.14.11.2.22.29.43l-.51.18ZM177.32 8.18v2.17h-.51V7.68h.95l.45 1.6.49-1.6h.94v2.67h-.61V8.18l-.65 2.17h-.42z"/></g></svg>