<?xml version="1.0" encoding="UTF-8"?>
<svg width="180px" height="42px" viewBox="0 0 180 42" version="1.1" xmlns="http://www.w3.org/2000/svg" xmlns:xlink="http://www.w3.org/1999/xlink">
    <title>Logo</title>
    <defs>
        <polygon id="path-1" points="20.5045868 0.200605263 0.434586826 0.200605263 0.434586826 27.2494342 20.5045868 27.2494342 20.5045868 0.200605263"></polygon>
    </defs>
    <g id="Symbols" stroke="none" stroke-width="1" fill="none" fill-rule="evenodd">
        <g id="Logo">
            <path d="M0,7.64361316 L5.41832335,7.64361316 L5.41832335,10.4216921 C6.66646707,8.77706053 8.30532934,7.27832368 11.0511377,7.27832368 C13.5458084,7.27832368 15.4347305,8.41121842 16.4333533,10.3852184 C18.1088623,8.37474474 20.1050299,7.27832368 22.7069461,7.27832368 C26.7359281,7.27832368 29.1589222,9.76350789 29.1589222,14.4796658 L29.1589222,27.2366132 L23.7405988,27.2366132 L23.7405988,16.3066658 C23.7405988,13.6750342 22.5997006,12.3227447 20.5679641,12.3227447 C18.5367665,12.3227447 17.2886228,13.6750342 17.2886228,16.3066658 L17.2886228,27.2366132 L11.8702994,27.2366132 L11.8702994,16.3066658 C11.8702994,13.6750342 10.7294012,12.3227447 8.69766467,12.3227447 C6.66646707,12.3227447 5.41832335,13.6750342 5.41832335,16.3066658 L5.41832335,27.2366132 L0,27.2366132 L0,7.64361316 L0,7.64361316 Z" id="Fill-1" fill="#FFFFFF"></path>
            <path d="M46.4491078,17.5499763 L46.4491078,17.4764763 C46.4491078,14.5895289 44.4173713,12.0662132 41.4231198,12.0662132 C38.3216228,12.0662132 36.4677305,14.5160289 36.4677305,17.4035289 L36.4677305,17.4764763 C36.4677305,20.3645289 38.4994671,22.8861868 41.4937186,22.8861868 C44.5952156,22.8861868 46.4491078,20.4380289 46.4491078,17.5499763 M31.1205449,17.5499763 L31.1205449,17.4764763 C31.1205449,11.8473711 35.5413234,7.27876579 41.4937186,7.27876579 C47.4116228,7.27876579 51.7968323,11.7738711 51.7968323,17.4035289 L51.7968323,17.4764763 C51.7968323,23.1061342 47.375515,27.6752921 41.4231198,27.6752921 C35.5052156,27.6752921 31.1205449,23.1785289 31.1205449,17.5499763" id="Fill-3" fill="#FFFFFF"></path>
            <g id="Group-7" transform="translate(53.3533, 0.3522)">
                <mask id="mask-2" fill="white">
                    <use xlink:href="#path-1"></use>
                </mask>
                <g id="Clip-6"></g>
                <path d="M15.1568623,17.1241184 L15.1568623,17.0517237 C15.1568623,13.7972763 13.0545269,11.6414605 10.5232096,11.6414605 C7.99189222,11.6414605 5.8534491,13.7613553 5.8534491,17.0517237 L5.8534491,17.1241184 C5.8534491,20.3780132 7.99189222,22.5343816 10.5232096,22.5343816 C13.0545269,22.5343816 15.1568623,20.3780132 15.1568623,17.1241184 M0.434586826,17.1241184 L0.434586826,17.0517237 C0.434586826,10.5080132 4.60530539,6.92640789 9.13279042,6.92640789 C12.0197964,6.92640789 13.8025509,8.27869737 15.0862635,9.85038158 L15.0862635,0.200328947 L20.5045868,0.200328947 L20.5045868,26.8841447 L15.0862635,26.8841447 L15.0862635,24.0695921 C13.7664431,25.8971447 11.9491976,27.2494342 9.13279042,27.2494342 C4.67698204,27.2494342 0.434586826,23.6672763 0.434586826,17.1241184" id="Fill-5" fill="#FFFFFF" mask="url(#mask-2)"></path>
            </g>
            <path d="M96.8212994,7.64361316 L102.239623,7.64361316 L102.239623,11.5916132 C103.344952,8.88592895 105.126629,7.13132368 108.335371,7.27832368 L108.335371,13.0897974 L108.050281,13.0897974 C104.450281,13.0897974 102.239623,15.3196658 102.239623,19.9982447 L102.239623,27.2366132 L96.8212994,27.2366132 L96.8212994,7.64361316 Z" id="Fill-8" fill="#FFFFFF"></path>
            <path d="M110.564192,7.64361316 L115.982515,7.64361316 L115.982515,10.4216921 C117.230659,8.77706053 118.834491,7.27832368 121.578683,7.27832368 C125.678802,7.27832368 128.067305,10.05585 128.067305,14.5520605 L128.067305,27.2366132 L122.648982,27.2366132 L122.648982,16.3066658 C122.648982,13.6750342 121.436407,12.3227447 119.369102,12.3227447 C117.301257,12.3227447 115.982515,13.6750342 115.982515,16.3066658 L115.982515,27.2366132 L110.564192,27.2366132 L110.564192,7.64361316 Z" id="Fill-10" fill="#FFFFFF"></path>
            <polygon id="Fill-12" fill="#FFFFFF" points="130.542036 5.48674737 136.245449 5.48674737 136.245449 0.552852632 130.542036 0.552852632"></polygon>
            <polygon id="Fill-14" fill="#FFFFFF" points="130.68485 27.2366684 136.103174 27.2366684 136.103174 7.64366842 130.68485 7.64366842"></polygon>
            <path d="M85.3571856,11.7376184 C87.5015569,11.7376184 88.8898204,13.2241974 89.3150299,15.4656711 L81.3093413,15.4656711 C81.8267066,13.1938026 83.2440719,11.7376184 85.3571856,11.7376184 M94.6605988,17.9149342 C94.6605988,12.3587763 91.738024,7.27843421 85.3571856,7.27843421 C79.7960479,7.27843421 75.9098802,11.8840658 75.9098802,17.4761447 L75.9098802,17.5501974 C75.9098802,23.5445921 80.1522754,27.6749605 85.8912575,27.6749605 C89.349521,27.6749605 91.9164072,26.28675 93.6980838,24.0198553 L90.5976647,21.2053026 C89.1,22.6299868 87.7812575,23.2152237 85.9629341,23.2152237 C83.5388623,23.2152237 81.8277844,21.8999605 81.2931737,19.3771974 L94.59,19.3771974 C94.6255689,18.8660132 94.6605988,18.3537237 94.6605988,17.9149342" id="Fill-15" fill="#FFFFFF"></path>
            <polygon id="Fill-16" fill="#FFFFFF" points="155.03206 11.5550842 155.03206 7.64355789 138.741521 7.64355789 138.741521 12.1397684 148.294994 12.1397684 138.420862 23.3250316 138.420862 27.2365579 141.124635 27.2365579"></polygon>
            <path d="M165.588413,23.2151132 C165.523743,23.2151132 165.461228,23.2101395 165.397635,23.2084816 L168.909251,27.1564816 C170.72003,26.5585342 172.183204,25.4704026 173.323563,24.0197447 L170.223144,21.2051921 C168.725479,22.6304289 167.406737,23.2151132 165.588413,23.2151132" id="Fill-17" fill="#FFFFFF"></path>
            <path d="M160.935036,15.4657816 C161.451862,13.1939132 162.869766,11.7377289 164.98288,11.7377289 C167.127251,11.7377289 168.514976,13.2237553 168.940186,15.4657816 L160.935036,15.4657816 Z M164.98288,7.27854474 C160.976533,7.27854474 157.849168,9.67475526 156.40809,13.1021763 L161.989707,19.3773079 L174.215695,19.3773079 C174.250725,18.8661237 174.286293,18.3538342 174.286293,17.9150447 C174.286293,12.3588868 171.363719,7.27854474 164.98288,7.27854474 L164.98288,7.27854474 Z" id="Fill-18" fill="#FFFFFF"></path>
            <polygon id="Fill-19" fill="#FEC14B" points="149.827365 27.2427474 155.032275 27.2427474 155.032275 22.7399053 149.827365 22.7399053"></polygon>
            <polygon id="Fill-20" fill="#FFFFFF" points="0 41.7110842 0 35.5171895 1.3839521 35.5171895 1.3839521 38.0333211 3.7751497 38.0333211 3.7751497 35.5171895 5.1591018 35.5171895 5.1591018 41.7110842 3.7751497 41.7110842 3.7751497 39.1385842 1.3839521 39.1385842 1.3839521 41.7110842"></polygon>
            <path d="M10.2813952,40.7108211 C11.3587006,40.7108211 11.8620539,39.7674789 11.8620539,38.6141368 C11.8620539,37.4607947 11.3430719,36.5174526 10.2733114,36.5174526 C9.19600599,36.5174526 8.69265269,37.4607947 8.69265269,38.6141368 C8.69265269,39.7674789 9.21163473,40.7108211 10.2813952,40.7108211 M10.2813952,35.4287684 C12.2242096,35.4287684 13.2621737,36.7992947 13.2621737,38.6141368 C13.2621737,40.4124 12.2317545,41.7995053 10.2733114,41.7995053 C8.33103593,41.7995053 7.29253293,40.4289789 7.29253293,38.6141368 C7.29253293,36.8158737 8.3229521,35.4287684 10.2813952,35.4287684" id="Fill-21" fill="#FFFFFF"></path>
            <polygon id="Fill-22" fill="#FFFFFF" points="21.8919341 35.5173 21.8919341 41.7111947 20.5236108 41.7111947 20.5236108 37.6222737 20.507982 37.6222737 19.2097186 41.7111947 18.0461856 41.7111947 16.7484611 37.6383 16.7328323 37.6383 16.7328323 41.7111947 15.3957665 41.7111947 15.3957665 35.5173 17.2593593 35.5173 18.6519341 39.9775895 18.6675629 39.9775895 20.051515 35.5173"></polygon>
            <polygon id="Fill-23" fill="#FFFFFF" points="24.2615749 41.7110842 24.2615749 35.5171895 28.4851078 35.5171895 28.4851078 36.6141632 25.637982 36.6141632 25.637982 38.0416105 28.1073234 38.0416105 28.1073234 39.1302947 25.637982 39.1302947 25.637982 40.6141105 28.5400778 40.6141105 28.5400778 41.7110842"></polygon>
            <polygon id="Fill-24" fill="#FFFFFF" points="34.275988 41.7110842 34.275988 35.5171895 38.0117964 35.5171895 38.0117964 35.9604 34.7637126 35.9604 34.7637126 38.3643474 37.6264671 38.3643474 37.6264671 38.8075579 34.7637126 38.8075579 34.7637126 41.2678737 38.0667665 41.2678737 38.0667665 41.7110842"></polygon>
            <polygon id="Fill-25" fill="#FFFFFF" points="46.3028982 35.5173 46.3028982 41.7111947 45.8151737 41.7111947 45.8151737 36.2108526 45.7995449 36.2108526 43.5894251 41.7111947 43.133497 41.7111947 40.9233772 36.2268789 40.9077485 36.2268789 40.9077485 41.7111947 40.4281078 41.7111947 40.4281078 35.5173 41.1437964 35.5173 43.3614611 41.0336684 43.3770898 41.0336684 45.5872096 35.5173"></polygon>
            <path d="M51.4566108,38.5576579 C51.9755928,38.5576579 52.4083473,38.2592368 52.4083473,37.59 C52.4083473,36.9207632 51.9755928,36.6140526 51.4566108,36.6140526 L50.230024,36.6140526 L50.230024,38.5576579 L51.4566108,38.5576579 Z M51.5902635,35.5170789 C52.8093054,35.5170789 53.8084671,36.2515263 53.8084671,37.5656842 C53.8084671,38.8886842 52.833018,39.6546316 51.5665509,39.6546316 L50.230024,39.6546316 L50.230024,41.7109737 L48.8455329,41.7109737 L48.8455329,35.5170789 L51.5902635,35.5170789 Z" id="Fill-26" fill="#FFFFFF"></path>
            <path d="M58.5762575,40.7108211 C59.6535629,40.7108211 60.1569162,39.7674789 60.1569162,38.6141368 C60.1569162,37.4607947 59.6379341,36.5174526 58.5681737,36.5174526 C57.4908683,36.5174526 56.987515,37.4607947 56.987515,38.6141368 C56.987515,39.7674789 57.506497,40.7108211 58.5762575,40.7108211 M58.5762575,35.4287684 C60.5190719,35.4287684 61.5570359,36.7992947 61.5570359,38.6141368 C61.5570359,40.4124 60.5266168,41.7995053 58.5681737,41.7995053 C56.6258982,41.7995053 55.5873952,40.4289789 55.5873952,38.6141368 C55.5873952,36.8158737 56.6178144,35.4287684 58.5762575,35.4287684" id="Fill-27" fill="#FFFFFF"></path>
            <polygon id="Fill-28" fill="#FFFFFF" points="71.5865389 35.5173 69.8878563 41.7111947 68.4009701 41.7111947 67.3554611 37.4935105 67.3392934 37.4935105 66.2857006 41.7111947 64.7680958 41.7111947 63.0688743 35.5173 64.5164192 35.5173 65.6018084 39.9610105 65.6174371 39.9610105 66.6236048 35.5173 68.110491 35.5173 69.1171976 39.9129316 69.1328263 39.9129316 70.194503 35.5173"></polygon>
            <polygon id="Fill-29" fill="#FFFFFF" points="73.4767545 41.7110842 73.4767545 35.5171895 77.7002874 35.5171895 77.7002874 36.6141632 74.8531617 36.6141632 74.8531617 38.0416105 77.322503 38.0416105 77.322503 39.1302947 74.8531617 39.1302947 74.8531617 40.6141105 77.7552575 40.6141105 77.7552575 41.7110842"></polygon>
            <path d="M81.2252695,38.22735 L82.5149102,38.22735 C82.9476647,38.22735 83.3092814,37.9687184 83.3092814,37.4205079 C83.3092814,36.8640079 82.9476647,36.6142184 82.5149102,36.6142184 L81.2252695,36.6142184 L81.2252695,38.22735 Z M82.3025749,39.3077447 L81.2252695,39.3077447 L81.2252695,41.7111395 L79.8407784,41.7111395 L79.8407784,35.5172447 L82.6722754,35.5172447 C83.851976,35.5172447 84.7013174,36.1704553 84.7013174,37.3237974 C84.7013174,38.1383763 84.260479,38.7109026 83.6002994,38.9850079 L84.8743114,41.7111395 L83.3561677,41.7111395 L82.3025749,39.3077447 Z" id="Fill-30" fill="#FFFFFF"></path>
            <polygon id="Fill-31" fill="#FFFFFF" points="92.8667964 35.5173 92.8667964 41.7111947 92.3796108 41.7111947 92.3796108 36.2108526 92.3634431 36.2108526 90.1533234 41.7111947 89.6973952 41.7111947 87.4872754 36.2268789 87.4716467 36.2268789 87.4716467 41.7111947 86.992006 41.7111947 86.992006 35.5173 87.7076946 35.5173 89.9258982 41.0336684 89.940988 41.0336684 92.1511078 35.5173"></polygon>
            <polygon id="Fill-32" fill="#FFFFFF" points="95.5826946 41.7110842 95.5826946 35.5171895 99.318503 35.5171895 99.318503 35.9604 96.0698802 35.9604 96.0698802 38.3643474 98.9326347 38.3643474 98.9326347 38.8075579 96.0698802 38.8075579 96.0698802 41.2678737 99.3734731 41.2678737 99.3734731 41.7110842"></polygon>
            <polygon id="Fill-33" fill="#FFFFFF" points="106.445317 35.5173 106.445317 41.7111947 106.013102 41.7111947 102.229868 36.3318789 102.21424 36.3318789 102.21424 41.7111947 101.734599 41.7111947 101.734599 35.5173 102.237952 35.5173 105.950048 40.8081947 105.965677 40.8081947 105.965677 35.5173"></polygon>
            <polygon id="Fill-34" fill="#FFFFFF" points="110.773024 41.7110842 110.773024 35.9604 108.555359 35.9604 108.555359 35.5171895 113.478952 35.5171895 113.478952 35.9604 111.260749 35.9604 111.260749 41.7110842"></polygon>
            <path d="M114.76218,36.4595368 C114.782659,36.5313789 114.800982,36.5628789 114.840323,36.5938263 C114.897449,36.6424579 114.989605,36.6678789 115.095772,36.6678789 C115.26176,36.6678789 115.366311,36.5916158 115.366311,36.4705895 C115.366311,36.3860368 115.311341,36.3318789 115.196551,36.3003789 L114.934096,36.2307474 C114.795054,36.1931684 114.725533,36.1550368 114.676491,36.0881684 C114.622599,36.0185368 114.596192,35.9373 114.596192,35.8466684 C114.596192,35.5963263 114.789126,35.4288789 115.079605,35.4288789 C115.226731,35.4288789 115.357689,35.4708789 115.456311,35.5504579 C115.515593,35.6007474 115.546311,35.6449579 115.571102,35.7311684 L115.33721,35.7897474 C115.300563,35.6830895 115.219186,35.6322474 115.08176,35.6322474 C114.940024,35.6322474 114.847868,35.6996684 114.847868,35.8041158 C114.847868,35.8864579 114.909305,35.9411684 115.038647,35.9748789 L115.272,36.0334579 C115.419665,36.0732474 115.507509,36.1240895 115.560323,36.2058789 C115.603976,36.2705368 115.626611,36.3462474 115.626611,36.4324579 C115.626611,36.6993789 115.411042,36.8712474 115.08176,36.8712474 C114.911461,36.8712474 114.770802,36.8270368 114.661401,36.7391684 C114.594036,36.6822474 114.559545,36.6258789 114.525054,36.5125895 L114.76218,36.4595368 Z" id="Fill-35" fill="#FFFFFF"></path>
            <polygon id="Fill-36" fill="#FFFFFF" points="116.926329 36.8502474 116.926329 35.6239579 116.547467 36.8502474 116.418665 36.8502474 116.039263 35.6239579 116.039263 36.8502474 115.838784 36.8502474 115.838784 35.4498789 116.223575 35.4498789 116.508665 36.3528789 116.79106 35.4498789 117.178006 35.4498789 117.178006 36.8502474"></polygon>
            <path d="M175.825725,8.44691842 C175.732491,8.20707632 175.619317,8.13136579 175.373569,8.13136579 C175.14776,8.13136579 175.018958,8.21923421 175.018958,8.36678684 C175.018958,8.52318158 175.112731,8.59115526 175.39297,8.64697105 C175.78315,8.73097105 175.94321,8.78236579 176.075246,8.87465526 C176.293509,9.02662895 176.410455,9.25044474 176.410455,9.50631316 C176.410455,9.78594474 176.26279,10.0617079 176.028898,10.21755 C175.860754,10.3297342 175.615545,10.3894184 175.34285,10.3894184 C175.038359,10.3894184 174.79315,10.3137079 174.59806,10.1617342 C174.434228,10.0296553 174.360395,9.90973421 174.286563,9.64999737 L174.847581,9.51791842 C174.921413,9.77378684 175.085246,9.88983947 175.373569,9.88983947 C175.631174,9.88983947 175.791234,9.78207632 175.791234,9.61020789 C175.791234,9.44994474 175.685605,9.37865526 175.339078,9.30626053 C175.050754,9.24657632 174.882611,9.19020789 174.73818,9.09847105 C174.535545,8.97468158 174.422371,8.75473421 174.422371,8.49112895 C174.422371,8.24299737 174.512371,8.03520789 174.68806,7.87549737 C174.86321,7.71578684 175.077162,7.64339211 175.369796,7.64339211 C175.650575,7.64339211 175.876922,7.71136579 176.052072,7.84731316 C176.188419,7.95176053 176.259018,8.05565526 176.340395,8.27118158 L175.825725,8.44691842 Z" id="Fill-37" fill="#FFFFFF"></path>
            <polygon id="Fill-38" fill="#FFFFFF" points="177.32091 8.17518947 177.32091 10.3497947 176.810551 10.3497947 176.810551 7.68334737 177.757976 7.68334737 178.213365 9.27824211 178.697317 7.68334737 179.644743 7.68334737 179.644743 10.3497947 179.032527 10.3497947 179.032527 8.17518947 178.377737 10.3497947 177.960611 10.3497947"></polygon>
        </g>
    </g>
</svg>